<mxfile host="app.diagrams.net" agent="Mozilla/5.0 (Windows NT 10.0; Win64; x64) AppleWebKit/537.36 (KHTML, like Gecko) Chrome/140.0.0.0 Safari/537.36" version="28.2.3">
  <diagram name="Page-1" id="CxtzycdDzUgCcl5UCyce">
    <mxGraphModel dx="1042" dy="562" grid="1" gridSize="10" guides="1" tooltips="1" connect="1" arrows="1" fold="1" page="1" pageScale="1" pageWidth="827" pageHeight="1169" background="#ffffff" math="0" shadow="0" adaptiveColors="none">
      <root>
        <mxCell id="0" />
        <mxCell id="1" parent="0" />
        <mxCell id="gJ7c2ORcNKjMw1yRVnQJ-59" value="" style="edgeStyle=orthogonalEdgeStyle;rounded=0;orthogonalLoop=1;jettySize=auto;html=1;strokeColor=#028090;fontColor=default;fillColor=#F45B69;labelBackgroundColor=none;" edge="1" parent="1" source="gJ7c2ORcNKjMw1yRVnQJ-57" target="gJ7c2ORcNKjMw1yRVnQJ-58">
          <mxGeometry relative="1" as="geometry" />
        </mxCell>
        <mxCell id="gJ7c2ORcNKjMw1yRVnQJ-57" value="Start" style="ellipse;whiteSpace=wrap;html=1;strokeColor=#2D7600;fontColor=#ffffff;fillColor=#60a917;labelBackgroundColor=none;" vertex="1" parent="1">
          <mxGeometry x="310" y="30" width="120" height="80" as="geometry" />
        </mxCell>
        <mxCell id="gJ7c2ORcNKjMw1yRVnQJ-61" value="" style="edgeStyle=orthogonalEdgeStyle;rounded=0;orthogonalLoop=1;jettySize=auto;html=1;strokeColor=#028090;fontColor=default;fillColor=#F45B69;labelBackgroundColor=none;" edge="1" parent="1" source="gJ7c2ORcNKjMw1yRVnQJ-58" target="gJ7c2ORcNKjMw1yRVnQJ-60">
          <mxGeometry relative="1" as="geometry" />
        </mxCell>
        <mxCell id="gJ7c2ORcNKjMw1yRVnQJ-58" value="Neww user" style="rhombus;whiteSpace=wrap;html=1;fillColor=#d80073;strokeColor=#A50040;fontColor=#ffffff;labelBackgroundColor=none;" vertex="1" parent="1">
          <mxGeometry x="290" y="130" width="160" height="80" as="geometry" />
        </mxCell>
        <mxCell id="gJ7c2ORcNKjMw1yRVnQJ-63" value="" style="edgeStyle=orthogonalEdgeStyle;rounded=0;orthogonalLoop=1;jettySize=auto;html=1;strokeColor=#028090;fontColor=default;fillColor=#F45B69;labelBackgroundColor=none;" edge="1" parent="1" source="gJ7c2ORcNKjMw1yRVnQJ-60" target="gJ7c2ORcNKjMw1yRVnQJ-62">
          <mxGeometry relative="1" as="geometry" />
        </mxCell>
        <mxCell id="gJ7c2ORcNKjMw1yRVnQJ-70" value="Text" style="edgeLabel;html=1;align=center;verticalAlign=middle;resizable=0;points=[];strokeColor=#028090;fontColor=#E4FDE1;fillColor=#F45B69;labelBackgroundColor=none;" vertex="1" connectable="0" parent="gJ7c2ORcNKjMw1yRVnQJ-63">
          <mxGeometry x="0.5" y="3" relative="1" as="geometry">
            <mxPoint as="offset" />
          </mxGeometry>
        </mxCell>
        <mxCell id="gJ7c2ORcNKjMw1yRVnQJ-60" value="Recognice the face" style="shape=parallelogram;perimeter=parallelogramPerimeter;whiteSpace=wrap;html=1;fixedSize=1;fillColor=#F45B69;strokeColor=#028090;fontColor=#E4FDE1;labelBackgroundColor=none;" vertex="1" parent="1">
          <mxGeometry x="285" y="230" width="170" height="40" as="geometry" />
        </mxCell>
        <mxCell id="gJ7c2ORcNKjMw1yRVnQJ-65" value="" style="edgeStyle=orthogonalEdgeStyle;rounded=0;orthogonalLoop=1;jettySize=auto;html=1;strokeColor=#028090;fontColor=default;fillColor=#F45B69;labelBackgroundColor=none;" edge="1" parent="1" source="gJ7c2ORcNKjMw1yRVnQJ-62" target="gJ7c2ORcNKjMw1yRVnQJ-64">
          <mxGeometry relative="1" as="geometry" />
        </mxCell>
        <mxCell id="gJ7c2ORcNKjMw1yRVnQJ-62" value="Face recognised" style="rhombus;whiteSpace=wrap;html=1;fillColor=#0050ef;strokeColor=#001DBC;fontColor=#ffffff;labelBackgroundColor=none;" vertex="1" parent="1">
          <mxGeometry x="300" y="290" width="140" height="80" as="geometry" />
        </mxCell>
        <mxCell id="gJ7c2ORcNKjMw1yRVnQJ-67" value="" style="edgeStyle=orthogonalEdgeStyle;rounded=0;orthogonalLoop=1;jettySize=auto;html=1;strokeColor=#028090;fontColor=default;fillColor=#F45B69;labelBackgroundColor=none;" edge="1" parent="1" source="gJ7c2ORcNKjMw1yRVnQJ-64" target="gJ7c2ORcNKjMw1yRVnQJ-66">
          <mxGeometry relative="1" as="geometry" />
        </mxCell>
        <mxCell id="gJ7c2ORcNKjMw1yRVnQJ-64" value="Stored in csv file with registration&amp;nbsp;&lt;div&gt;number&amp;amp;date,time or entry&lt;/div&gt;" style="shape=parallelogram;perimeter=parallelogramPerimeter;whiteSpace=wrap;html=1;fixedSize=1;fillColor=#F45B69;strokeColor=#028090;fontColor=#E4FDE1;labelBackgroundColor=none;" vertex="1" parent="1">
          <mxGeometry x="255" y="400" width="230" height="40" as="geometry" />
        </mxCell>
        <mxCell id="gJ7c2ORcNKjMw1yRVnQJ-66" value="End" style="ellipse;whiteSpace=wrap;html=1;fillColor=#e3c800;strokeColor=#B09500;fontColor=#000000;labelBackgroundColor=none;" vertex="1" parent="1">
          <mxGeometry x="310" y="470" width="120" height="80" as="geometry" />
        </mxCell>
        <mxCell id="gJ7c2ORcNKjMw1yRVnQJ-68" value="Give the photograph" style="rounded=0;whiteSpace=wrap;html=1;strokeColor=#028090;fontColor=#E4FDE1;fillColor=#F45B69;labelBackgroundColor=none;" vertex="1" parent="1">
          <mxGeometry x="540" y="130" width="180" height="60" as="geometry" />
        </mxCell>
        <mxCell id="gJ7c2ORcNKjMw1yRVnQJ-69" value="Store the face data in folder&amp;nbsp;&lt;div&gt;on your name&lt;/div&gt;" style="rounded=0;whiteSpace=wrap;html=1;strokeColor=#028090;fontColor=#E4FDE1;fillColor=#F45B69;labelBackgroundColor=none;" vertex="1" parent="1">
          <mxGeometry x="540" y="220" width="180" height="60" as="geometry" />
        </mxCell>
        <mxCell id="gJ7c2ORcNKjMw1yRVnQJ-71" value="" style="endArrow=none;html=1;rounded=0;strokeColor=#028090;fontColor=#E4FDE1;fillColor=#F45B69;exitX=1;exitY=0.5;exitDx=0;exitDy=0;" edge="1" parent="1" source="gJ7c2ORcNKjMw1yRVnQJ-62">
          <mxGeometry width="50" height="50" relative="1" as="geometry">
            <mxPoint x="430" y="310" as="sourcePoint" />
            <mxPoint x="760" y="330" as="targetPoint" />
            <Array as="points" />
          </mxGeometry>
        </mxCell>
        <mxCell id="gJ7c2ORcNKjMw1yRVnQJ-72" value="" style="endArrow=none;html=1;rounded=0;strokeColor=#028090;fontColor=#E4FDE1;fillColor=#F45B69;" edge="1" parent="1">
          <mxGeometry width="50" height="50" relative="1" as="geometry">
            <mxPoint x="760" y="330" as="sourcePoint" />
            <mxPoint x="760" y="90" as="targetPoint" />
            <Array as="points" />
          </mxGeometry>
        </mxCell>
        <mxCell id="gJ7c2ORcNKjMw1yRVnQJ-73" value="" style="endArrow=none;html=1;rounded=0;strokeColor=#028090;fontColor=#E4FDE1;fillColor=#F45B69;" edge="1" parent="1">
          <mxGeometry width="50" height="50" relative="1" as="geometry">
            <mxPoint x="610" y="90" as="sourcePoint" />
            <mxPoint x="760" y="90" as="targetPoint" />
          </mxGeometry>
        </mxCell>
        <mxCell id="gJ7c2ORcNKjMw1yRVnQJ-74" value="" style="endArrow=none;html=1;rounded=0;strokeColor=#028090;fontColor=#E4FDE1;fillColor=#F45B69;exitX=0.384;exitY=0.01;exitDx=0;exitDy=0;exitPerimeter=0;" edge="1" parent="1" source="gJ7c2ORcNKjMw1yRVnQJ-68">
          <mxGeometry width="50" height="50" relative="1" as="geometry">
            <mxPoint x="610" y="120" as="sourcePoint" />
            <mxPoint x="610" y="90" as="targetPoint" />
          </mxGeometry>
        </mxCell>
        <mxCell id="gJ7c2ORcNKjMw1yRVnQJ-75" value="" style="endArrow=classic;html=1;rounded=0;strokeColor=#028090;fontColor=#E4FDE1;fillColor=#F45B69;" edge="1" parent="1">
          <mxGeometry width="50" height="50" relative="1" as="geometry">
            <mxPoint x="450" y="170" as="sourcePoint" />
            <mxPoint x="540" y="170" as="targetPoint" />
            <Array as="points" />
          </mxGeometry>
        </mxCell>
        <mxCell id="gJ7c2ORcNKjMw1yRVnQJ-78" value="" style="endArrow=classic;html=1;rounded=0;strokeColor=#028090;fontColor=#E4FDE1;fillColor=#F45B69;entryX=0;entryY=0.5;entryDx=0;entryDy=0;exitX=1;exitY=0.5;exitDx=0;exitDy=0;" edge="1" parent="1" source="gJ7c2ORcNKjMw1yRVnQJ-60" target="gJ7c2ORcNKjMw1yRVnQJ-69">
          <mxGeometry width="50" height="50" relative="1" as="geometry">
            <mxPoint x="390" y="310" as="sourcePoint" />
            <mxPoint x="440" y="260" as="targetPoint" />
          </mxGeometry>
        </mxCell>
      </root>
    </mxGraphModel>
  </diagram>
</mxfile>
